#!OML:ASF E:\Steps\Project 1\Capture day 1\Session 2\Subject.ASF
:FULLY-SPECIFIED
:DEGREES
455
root 9.64041 16.3665 9.00048 26.6858 0.338647 -359.316
lowerback -30.1837 -1.6881 -4.35584
upperback -2.49873 -0.657847 -0.474606
thorax 13.0886 -0.514894 1.5994
lowerneck 1.91771 -3.76358 -1.62586
upperneck -19.6159 -4.19194 6.47503
head -6.05139 -2.40145 2.56398
rclavicle -6.06293e-015 1.63003e-014
rhumerus -27.0445 -20.2272 -84.8786
rradius 21.5425
rwrist 7.22934
rhand -10.0351 -51.3042
rfingers 7.12502
rthumb 15.9499 -80.6675
lclavicle -6.06293e-015 1.63003e-014
lhumerus -24.7434 -0.822834 87.2734
lradius 19.407
lwrist -7.37577
lhand -22.1103 -11.0709
lfingers 7.12502
lthumb 4.30226 18.8654
rfemur -25.0478 6.43212 18.7751
rtibia 6.43285
rfoot -15.2798 -10.037
rtoes -37.0404
lfemur -24.4598 -8.23621 -17.9156
ltibia 7.33442
lfoot -6.90027 3.36803
ltoes -39.5794
456
root 9.63711 16.3675 8.99758 26.6992 0.35784 -359.342
lowerback -30.1734 -1.66202 -4.34845
upperback -2.5323 -0.625037 -0.493618
thorax 13.0435 -0.497891 1.58791
lowerneck 1.96567 -3.80391 -1.61975
upperneck -19.6274 -4.23913 6.51689
head -6.06032 -2.42841 2.58009
rclavicle 7.20594e-015 5.96354e-015
rhumerus -27.0338 -20.0481 -85.0305
rradius 21.6615
rwrist 6.86798
rhand -10.0784 -50.9449
rfingers 7.12502
rthumb 15.9081 -80.3115
lclavicle 7.20594e-015 5.96354e-015
lhumerus -24.7134 -0.907087 87.335
lradius 19.4667
lwrist -7.33246
lhand -21.9824 -11.4572
lfingers 7.12502
lthumb 4.42573 18.4765
rfemur -25.0417 6.61093 18.76
rtibia 6.35929
rfoot -15.2704 -10.1874
rtoes -36.387
lfemur -24.5232 -8.15489 -17.8681
ltibia 7.38803
lfoot -6.83478 3.29569
ltoes -39.7548
457
root 9.63421 16.3678 8.99543 26.662 0.339406 -359.352
lowerback -30.1182 -1.6326 -4.34526
upperback -2.56142 -0.587779 -0.521424
thorax 12.9834 -0.478808 1.57148
lowerneck 2.04267 -3.8376 -1.61433
upperneck -19.6122 -4.27488 6.57867
head -6.06571 -2.4514 2.6021
rclavicle 3.72721e-015 6.36111e-015
rhumerus -27.1104 -19.6975 -85.2181
rradius 21.9108
rwrist 6.37504
rhand -10.2336 -50.7909
rfingers 7.12502
rthumb 15.7587 -80.1693
lclavicle 3.72721e-015 6.36111e-015
lhumerus -24.7678 -1.05905 87.4005
lradius 19.622
lwrist -7.29989
lhand -21.7713 -11.2862
lfingers 7.12502
lthumb 4.62959 18.6432
rfemur -24.9323 6.74807 18.7459
rtibia 6.19261
rfoot -15.2012 -10.2419
rtoes -36.1944
lfemur -24.4529 -8.22964 -17.8267
ltibia 7.31143
lfoot -6.77407 3.44659
ltoes -40.1047
458
root 9.63163 16.3679 8.99058 26.6187 0.295675 -359.343
lowerback -30.0808 -1.61085 -4.38028
upperback -2.58143 -0.547157 -0.544724
thorax 12.9414 -0.460695 1.58153
lowerneck 2.0934 -3.8606 -1.59056
upperneck -19.533 -4.29891 6.62678
head -6.04774 -2.46804 2.61376
rclavicle 5.26779e-015 -1.59028e-015
rhumerus -27.1392 -19.4618 -85.3693
rradius 22.1164
rwrist 6.03525
rhand -10.1627 -51.126
rfingers 7.12502
rthumb 15.827 -80.4991
lclavicle 5.26779e-015 -1.59028e-015
lhumerus -24.8627 -1.2828 87.5052
lradius 19.8034
lwrist -7.25304
lhand -21.7759 -10.9558
lfingers 7.12502
lthumb 4.62514 18.9737
rfemur -24.8892 6.82829 18.7078
rtibia 6.13695
rfoot -15.2305 -10.1665
rtoes -35.7779
lfemur -24.333 -8.49931 -17.7568
ltibia 7.12428
lfoot -6.74998 3.81482
ltoes -39.9709
459
root 9.63117 16.3671 8.98395 26.5736 0.25857 -359.292
lowerback -30.0165 -1.56632 -4.42656
upperback -2.61263 -0.467988 -0.617382
thorax 12.872 -0.423852 1.55966
lowerneck 2.06131 -3.9309 -1.51189
upperneck -19.3939 -4.38331 6.68612
head -5.99508 -2.51684 2.61911
rclavicle 8.44835e-016 3.57812e-015
rhumerus -27.1577 -19.5229 -85.4467
rradius 22.2058
rwrist 5.86642
rhand -9.90697 -51.2153
rfingers 7.12502
rthumb 16.0732 -80.5687
lclavicle 8.44835e-016 3.57812e-015
lhumerus -24.9356 -1.54663 87.6048
lradius 19.8643
lwrist -7.02154
lhand -22.0491 -11.0388
lfingers 7.12502
lthumb 4.36134 18.8963
rfemur -24.866 6.79727 18.6511
rtibia 6.22136
rfoot -15.3583 -10.0958
rtoes -35.4889
lfemur -24.2634 -8.64309 -17.7956
ltibia 7.03247
lfoot -6.71207 3.99407
ltoes -39.6947
460
root 9.63286 16.3654 8.97695 26.4844 0.243215 -359.227
lowerback -29.8579 -1.53494 -4.46102
upperback -2.63944 -0.418279 -0.669614
thorax 12.7681 -0.399753 1.54309
lowerneck 2.042 -3.99431 -1.49717
upperneck -19.3293 -4.46271 6.73722
head -5.96687 -2.55911 2.63449
rclavicle 5.91384e-015 3.97569e-015
rhumerus -27.182 -19.507 -85.4841
rradius 22.2727
rwrist 5.56385
rhand -9.97052 -50.9796
rfingers 7.12502
rthumb 16.012 -80.3379
lclavicle 5.91384e-015 3.97569e-015
lhumerus -24.9273 -1.53183 87.6853
lradius 19.7537
lwrist -6.80942
lhand -22.3377 -11.5077
lfingers 7.12502
lthumb 4.08266 18.4329
rfemur -24.7861 6.63887 18.637
rtibia 6.32461
rfoot -15.46 -10.0142
rtoes -35.5925
lfemur -24.193 -8.55126 -17.955
ltibia 7.05661
lfoot -6.69387 3.85442
ltoes -39.9998
461
root 9.63373 16.3643 8.96986 26.4774 0.340098 -359.302
lowerback -29.789 -1.53093 -4.36941
upperback -2.65496 -0.454282 -0.622674
thorax 12.7228 -0.411531 1.53124
lowerneck 2.02494 -4.00929 -1.54606
upperneck -19.3444 -4.48663 6.73854
head -5.96618 -2.56738 2.64414
rclavicle 3.32964e-015 -1.31198e-014
rhumerus -27.0813 -19.3613 -85.5288
rradius 22.2708
rwrist 5.29496
rhand -10.1384 -51.0693
rfingers 7.12502
rthumb 15.8504 -80.4405
lclavicle 3.32964e-015 -1.31198e-014
lhumerus -24.8639 -1.44183 87.7913
lradius 19.7094
lwrist -6.82285
lhand -22.5753 -11.9682
lfingers 7.12502
lthumb 3.85326 17.9767
rfemur -24.7801 6.54467 18.7703
rtibia 6.22809
rfoot -15.3178 -10.0265
rtoes -35.8647
lfemur -24.1817 -8.66455 -17.8424
ltibia 6.98352
lfoot -6.66637 3.92579
ltoes -40.1602
462
root 9.63459 16.3635 8.96321 26.5911 0.510845 -359.452
lowerback -29.8406 -1.51967 -4.1816
upperback -2.7217 -0.507871 -0.56964
thorax 12.6734 -0.425713 1.46599
lowerneck 2.08333 -4.01769 -1.56546
upperneck -19.3607 -4.49846 6.74213
head -5.98025 -2.57286 2.65105
rclavicle 7.00716e-015 5.1684e-015
rhumerus -27.0541 -19.1027 -85.6266
rradius 22.3449
rwrist 5.06591
rhand -10.1541 -51.2806
rfingers 7.12502
rthumb 15.8352 -80.653
lclavicle 7.00716e-015 5.1684e-015
lhumerus -24.8545 -1.5793 87.8951
lradius 19.7541
lwrist -6.76564
lhand -22.8213 -12.3306
lfingers 7.12502
lthumb 3.61562 17.6185
rfemur -24.9042 6.47453 18.9696
rtibia 6.12772
rfoot -15.192 -10.013
rtoes -35.8666
lfemur -24.3397 -8.86407 -17.5633
ltibia 6.96854
lfoot -6.6691 4.06174
ltoes -39.8823
463
root 9.63751 16.3617 8.95764 26.6255 0.609451 -359.474
lowerback -29.8563 -1.51807 -4.08821
upperback -2.7413 -0.534732 -0.579964
thorax 12.6594 -0.432501 1.3941
lowerneck 2.11042 -4.02529 -1.55499
upperneck -19.3669 -4.50739 6.74435
head -5.98675 -2.57846 2.65136
rclavicle -2.5842e-015 -9.14409e-015
rhumerus -27.0321 -18.8113 -85.7826
rradius 22.4736
rwrist 4.89244
rhand -10.3314 -51.0804
rfingers 7.12502
rthumb 15.6645 -80.4663
lclavicle -2.5842e-015 -9.14409e-015
lhumerus -24.7819 -1.74699 87.9604
lradius 19.741
lwrist -6.63891
lhand -22.9956 -12.6352
lfingers 7.12502
lthumb 3.4474 17.3166
rfemur -24.9479 6.25031 19.0492
rtibia 6.12881
rfoot -15.2332 -9.81136
rtoes -35.6683
lfemur -24.4282 -8.90925 -17.5354
ltibia 7.04657
lfoot -6.70658 3.98774
ltoes -39.702
464
root 9.63931 16.3606 8.95431 26.5732 0.630082 -359.415
lowerback -29.8879 -1.52242 -4.10201
upperback -2.65325 -0.526782 -0.615122
thorax 12.7726 -0.431744 1.36602
lowerneck 1.98557 -4.04383 -1.53185
upperneck -19.3353 -4.53293 6.73965
head -5.95486 -2.59029 2.64311
rclavicle 8.05078e-015 7.95139e-015
rhumerus -26.8746 -18.8075 -85.8975
rradius 22.4982
rwrist 5.01954
rhand -10.493 -50.8395
rfingers 7.12502
rthumb 15.5089 -80.2375
lclavicle 8.05078e-015 7.95139e-015
lhumerus -24.5765 -1.82735 88.0095
lradius 19.7105
lwrist -6.63392
lhand -23.0301 -12.6486
lfingers 7.12502
lthumb 3.41401 17.3038
rfemur -24.8815 6.00419 19.0443
rtibia 6.10377
rfoot -15.2863 -9.56733
rtoes -35.5388
lfemur -24.372 -8.9903 -17.6295
ltibia 7.05763
lfoot -6.69393 3.9897
ltoes -39.6933
465
root 9.63767 16.3607 8.95105 26.5604 0.656959 -359.45
lowerback -29.9187 -1.49511 -4.05725
upperback -2.63005 -0.50028 -0.639956
thorax 12.811 -0.417723 1.32478
lowerneck 1.98836 -4.06643 -1.49655
upperneck -19.2556 -4.56191 6.7515
head -5.92964 -2.60683 2.64031
rclavicle 4.12478e-015 4.77083e-015
rhumerus -26.6465 -18.061 -86.2127
rradius 22.337
rwrist 4.45436
rhand -10.4975 -51.0913
rfingers 7.12502
rthumb 15.5046 -80.4896
lclavicle 4.12478e-015 4.77083e-015
lhumerus -24.5266 -1.88125 88.0286
lradius 19.8007
lwrist -6.63124
lhand -22.9623 -12.4343
lfingers 7.12502
lthumb 3.47946 17.517
rfemur -24.8779 5.91709 19.1266
rtibia 6.11029
rfoot -15.232 -9.48771
rtoes -35.7434
lfemur -24.3756 -9.03089 -17.5693
ltibia 7.05415
lfoot -6.64974 4.01453
ltoes -39.9085
466
root 9.63638 16.3607 8.94738 26.5803 0.749931 -359.568
lowerback -30.0092 -1.43674 -3.89194
upperback -2.60058 -0.469886 -0.66712
thorax 12.8829 -0.396179 1.21661
lowerneck 1.94178 -4.08831 -1.42558
upperneck -19.1609 -4.58876 6.75447
head -5.89261 -2.62322 2.62696
rclavicle -2.73329e-015 -3.65764e-014
rhumerus -26.6765 -18.6049 -86.1724
rradius 22.4753
rwrist 5.25141
rhand -10.0385 -51.4775
rfingers 7.12502
rthumb 15.9466 -80.841
lclavicle -2.73329e-015 -3.65764e-014
lhumerus -24.5269 -2.03729 88.0555
lradius 20.0075
lwrist -6.52217
lhand -22.93 -12.1736
lfingers 7.12502
lthumb 3.51071 17.7772
rfemur -24.8945 5.91386 19.2988
rtibia 6.09994
rfoot -15.1066 -9.61076
rtoes -36.189
lfemur -24.4384 -9.02745 -17.3984
ltibia 7.07024
lfoot -6.63352 3.98159
ltoes -40.1025
467
root 9.63803 16.3601 8.94564 26.612 0.846554 -359.645
lowerback -30.3563 -1.35422 -3.68181
upperback -2.37409 -0.398603 -0.74414
thorax 13.2912 -0.359234 1.04254
lowerneck 1.67406 -4.14482 -1.33871
upperneck -19.2138 -4.65178 6.78925
head -5.86193 -2.65945 2.62085
rclavicle 1.98785e-016 -9.54166e-015
rhumerus -26.1796 -18.4259 -86.4586
rradius 22.3709
rwrist 5.17043
rhand -9.72136 -51.7394
rfingers 7.12502
rthumb 16.252 -81.0782
lclavicle 1.98785e-016 -9.54166e-015
lhumerus -24.1186 -2.43848 88.1228
lradius 20.0125
lwrist -6.15105
lhand -23.0052 -11.9808
lfingers 7.12502
lthumb 3.43807 17.9713
rfemur -24.8732 5.88623 19.4059
rtibia 6.01014
rfoot -15.0119 -9.64833
rtoes -36.6633
lfemur -24.485 -9.0804 -17.2959
ltibia 7.07874
lfoot -6.66949 3.97895
ltoes -39.9639
468
root 9.63991 16.3593 8.94274 26.6371 0.910614 -359.677
lowerback -30.1597 -1.37402 -3.6266
upperback -2.56354 -0.460428 -0.72305
thorax 12.9907 -0.378663 1.01462
lowerneck 1.85074 -4.11444 -1.31007
upperneck -19.129 -4.6213 6.72402
head -5.86981 -2.64311 2.59653
rclavicle -3.27995e-015 1.15295e-014
rhumerus -26.5928 -18.8774 -86.2442
rradius 22.5097
rwrist 5.97751
rhand -9.47384 -51.9097
rfingers 7.12502
rthumb 16.4903 -81.2289
lclavicle -3.27995e-015 1.15295e-014
lhumerus -24.3702 -2.52152 88.2067
lradius 19.9806
lwrist -5.88262
lhand -23.0475 -11.8654
lfingers 7.12502
lthumb 3.39728 18.0873
rfemur -24.8624 5.73358 19.4861
rtibia 5.93869
rfoot -14.9594 -9.48383
rtoes -37.0617
lfemur -24.5236 -9.09779 -17.2691
ltibia 7.09458
lfoot -6.69194 3.87655
ltoes -39.4823
